<svg width="24" height="19" viewBox="0 0 24 19" fill="none" xmlns="http://www.w3.org/2000/svg">
<path d="M22.6875 15.375H14.1445C14.1094 16.0781 13.6172 16.5 12.9844 16.5H10.875C10.207 16.5 9.67969 15.9023 9.71484 15.375H1.3125C0.996094 15.375 0.75 15.6562 0.75 15.9375V16.5C0.75 17.7656 1.73438 18.75 3 18.75H21C22.2305 18.75 23.25 17.7656 23.25 16.5V15.9375C23.25 15.6562 22.9688 15.375 22.6875 15.375ZM21 2.4375C21 1.52344 20.2266 0.75 19.3125 0.75H4.6875C3.73828 0.75 3 1.52344 3 2.4375V14.25H21V2.4375ZM18.75 12H5.25V3H18.75V12Z" fill="black"/>
</svg>
